<?xml version="1.0" encoding="UTF-8" standalone="no"?>
<!DOCTYPE svg PUBLIC "-//W3C//DTD SVG 1.1//EN" "http://www.w3.org/Graphics/SVG/1.1/DTD/svg11.dtd">
<svg width="100%" height="100%" viewBox="0 0 567 171" version="1.1" xmlns="http://www.w3.org/2000/svg" xmlns:xlink="http://www.w3.org/1999/xlink" xml:space="preserve" xmlns:serif="http://www.serif.com/" style="fill-rule:evenodd;clip-rule:evenodd;stroke-linejoin:round;stroke-miterlimit:2;">
    <g>
        <path d="M137.532,76.477C110.538,60.446 66.012,58.972 40.243,66.794C36.104,68.049 31.728,65.713 30.475,61.575C29.22,57.434 31.554,53.061 35.695,51.803C65.277,42.824 114.451,44.559 145.527,63.006C149.25,65.215 150.471,70.022 148.264,73.738C146.056,77.46 141.245,78.687 137.532,76.477ZM136.648,100.221C134.755,103.294 130.737,104.257 127.668,102.371C105.163,88.538 70.845,84.53 44.22,92.612C40.768,93.656 37.121,91.709 36.072,88.263C35.032,84.81 36.979,81.17 40.426,80.12C70.841,70.89 108.652,75.36 134.5,91.245C137.569,93.135 138.535,97.155 136.648,100.221ZM126.401,123.024C124.897,125.491 121.683,126.265 119.225,124.761C99.559,112.742 74.807,110.027 45.657,116.686C42.848,117.33 40.048,115.569 39.408,112.761C38.764,109.952 40.518,107.153 43.333,106.512C75.233,99.22 102.597,102.358 124.67,115.846C127.131,117.349 127.906,120.564 126.401,123.024ZM87.995,2.237C41.746,2.237 4.252,39.73 4.252,85.979C4.252,132.232 41.746,169.723 87.995,169.723C134.247,169.723 171.739,132.232 171.739,85.979C171.739,39.73 134.247,2.237 87.995,2.237Z" style="fill:#1ed760;fill-rule:nonzero;"/>
        <path d="M232.089,79.547C217.63,76.098 215.055,73.678 215.055,68.594C215.055,63.79 219.579,60.557 226.305,60.557C232.825,60.557 239.289,63.013 246.068,68.067C246.273,68.219 246.53,68.281 246.783,68.241C247.036,68.203 247.259,68.064 247.408,67.855L254.468,57.903C254.758,57.493 254.679,56.928 254.288,56.615C246.221,50.141 237.137,46.994 226.519,46.994C210.907,46.994 200.002,56.363 200.002,69.768C200.002,84.144 209.409,89.233 225.665,93.162C239.501,96.349 241.836,99.019 241.836,103.792C241.836,109.081 237.114,112.369 229.515,112.369C221.076,112.369 214.191,109.526 206.49,102.857C206.299,102.693 206.037,102.617 205.795,102.631C205.541,102.652 205.308,102.77 205.146,102.965L197.23,112.386C196.898,112.777 196.94,113.361 197.323,113.699C206.284,121.698 217.303,125.924 229.195,125.924C246.018,125.924 256.889,116.731 256.889,102.504C256.889,90.481 249.705,83.831 232.089,79.547Z" style="fill:#1ed760;fill-rule:nonzero;"/>
        <path d="M307.162,95.662C307.162,105.814 300.908,112.899 291.953,112.899C283.1,112.899 276.422,105.492 276.422,95.662C276.422,85.832 283.1,78.424 291.953,78.424C300.764,78.424 307.162,85.672 307.162,95.662ZM294.95,65.287C287.658,65.287 281.677,68.158 276.745,74.043L276.745,67.419C276.745,66.897 276.321,66.471 275.798,66.471L262.852,66.471C262.329,66.471 261.906,66.897 261.906,67.419L261.906,141.021C261.906,141.544 262.329,141.97 262.852,141.97L275.798,141.97C276.321,141.97 276.745,141.544 276.745,141.021L276.745,117.789C281.678,123.325 287.66,126.029 294.95,126.029C308.499,126.029 322.215,115.599 322.215,95.662C322.215,75.719 308.499,65.287 294.95,65.287Z" style="fill:#1ed760;fill-rule:nonzero;"/>
        <path d="M357.373,113.005C348.092,113.005 341.095,105.548 341.095,95.662C341.095,85.733 347.85,78.528 357.159,78.528C366.5,78.528 373.544,85.985 373.544,95.878C373.544,105.805 366.743,113.005 357.373,113.005ZM357.373,65.287C339.924,65.287 326.254,78.723 326.254,95.878C326.254,112.847 339.83,126.142 357.159,126.142C374.67,126.142 388.382,112.751 388.382,95.662C388.382,78.628 374.764,65.287 357.373,65.287Z" style="fill:#1ed760;fill-rule:nonzero;"/>
        <path d="M425.644,66.471L411.397,66.471L411.397,51.904C411.397,51.382 410.975,50.956 410.452,50.956L397.507,50.956C396.983,50.956 396.557,51.382 396.557,51.904L396.557,66.471L390.332,66.471C389.81,66.471 389.389,66.897 389.389,67.419L389.389,78.546C389.389,79.069 389.81,79.495 390.332,79.495L396.557,79.495L396.557,108.286C396.557,119.921 402.348,125.82 413.769,125.82C418.413,125.82 422.266,124.861 425.897,122.802C426.192,122.637 426.376,122.319 426.376,121.981L426.376,111.385C426.376,111.058 426.205,110.75 425.926,110.578C425.644,110.401 425.293,110.392 425.004,110.535C422.51,111.79 420.099,112.369 417.404,112.369C413.251,112.369 411.397,110.484 411.397,106.257L411.397,79.495L425.644,79.495C426.167,79.495 426.588,79.069 426.588,78.546L426.588,67.419C426.588,66.897 426.167,66.471 425.644,66.471Z" style="fill:#1ed760;fill-rule:nonzero;"/>
        <path d="M475.281,66.527L475.281,64.738C475.281,59.475 477.299,57.128 481.825,57.128C484.524,57.128 486.692,57.665 489.12,58.474C489.419,58.568 489.731,58.521 489.974,58.343C490.224,58.164 490.365,57.877 490.365,57.573L490.365,46.663C490.365,46.246 490.097,45.876 489.696,45.754C487.131,44.991 483.849,44.207 478.935,44.207C466.976,44.207 460.656,50.942 460.656,63.674L460.656,66.414L454.436,66.414C453.914,66.414 453.486,66.84 453.486,67.363L453.486,78.546C453.486,79.069 453.914,79.495 454.436,79.495L460.656,79.495L460.656,123.904C460.656,124.427 461.078,124.852 461.6,124.852L474.546,124.852C475.069,124.852 475.495,124.427 475.495,123.904L475.495,79.495L487.583,79.495L506.1,123.892C503.998,128.557 501.931,129.485 499.109,129.485C496.828,129.485 494.426,128.804 491.97,127.46C491.739,127.333 491.466,127.312 491.216,127.389C490.969,127.477 490.761,127.66 490.656,127.901L486.268,137.528C486.059,137.983 486.237,138.517 486.675,138.753C491.256,141.234 495.392,142.293 500.502,142.293C510.062,142.293 515.346,137.839 520.005,125.859L542.466,67.82C542.578,67.528 542.545,67.198 542.366,66.939C542.188,66.682 541.901,66.527 541.587,66.527L528.109,66.527C527.706,66.527 527.344,66.784 527.212,67.163L513.405,106.6L498.282,67.137C498.144,66.77 497.791,66.527 497.398,66.527L475.281,66.527Z" style="fill:#1ed760;fill-rule:nonzero;"/>
        <path d="M446.505,66.471L433.558,66.471C433.035,66.471 432.61,66.897 432.61,67.419L432.61,123.904C432.61,124.427 433.035,124.852 433.558,124.852L446.505,124.852C447.027,124.852 447.453,124.427 447.453,123.904L447.453,67.419C447.453,66.897 447.027,66.471 446.505,66.471Z" style="fill:#1ed760;fill-rule:nonzero;"/>
        <path d="M440.097,40.752C434.969,40.752 430.806,44.904 430.806,50.033C430.806,55.165 434.969,59.322 440.097,59.322C445.224,59.322 449.382,55.165 449.382,50.033C449.382,44.904 445.224,40.752 440.097,40.752Z" style="fill:#1ed760;fill-rule:nonzero;"/>
        <path d="M554.049,72.089L551.677,72.089L551.677,75.114L554.049,75.114C555.233,75.114 555.94,74.535 555.94,73.601C555.94,72.617 555.233,72.089 554.049,72.089ZM555.587,76.404L558.164,80.013L555.991,80.013L553.671,76.703L551.677,76.703L551.677,80.013L549.858,80.013L549.858,70.449L554.123,70.449C556.344,70.449 557.806,71.586 557.806,73.499C557.806,75.067 556.9,76.025 555.587,76.404ZM553.567,67.266C548.9,67.266 545.368,70.976 545.368,75.519C545.368,80.06 548.875,83.72 553.519,83.72C558.185,83.72 561.72,80.013 561.72,75.467C561.72,70.927 558.211,67.266 553.567,67.266ZM553.519,84.631C548.395,84.631 544.408,80.516 544.408,75.519C544.408,70.522 548.447,66.36 553.567,66.36C558.69,66.36 562.678,70.474 562.678,75.467C562.678,80.465 558.642,84.631 553.519,84.631Z" style="fill:#1ed760;fill-rule:nonzero;"/>
    </g>
</svg>
